HIERARCHY
ROOT Hips
{
	OFFSET -1.602300 6.242603 43.997101
	CHANNELS 6 Xposition Yposition Zposition Zrotation Xrotation Yrotation
	JOINT Chest
	{
		OFFSET -0.204900 1.598101 7.917301
		CHANNELS 6 Xposition Yposition Zposition Zrotation Xrotation Yrotation
		JOINT Chest2
		{
			OFFSET 0.000000 0.000000 3.404099
			CHANNELS 6 Xposition Yposition Zposition Zrotation Xrotation Yrotation
			JOINT Neck
			{
				OFFSET 0.000000 0.000000 7.928600
				CHANNELS 6 Xposition Yposition Zposition Zrotation Xrotation Yrotation
				JOINT Head
				{
					OFFSET 0.000000 0.000000 2.173897
					CHANNELS 6 Xposition Yposition Zposition Zrotation Xrotation Yrotation
					End Site
					{
						OFFSET 0.000000 0.000001 10.404503
					}
				}
			}
			JOINT LeftCollar
			{
				OFFSET 2.833800 -1.396299 4.843300
				CHANNELS 6 Xposition Yposition Zposition Zrotation Xrotation Yrotation
				JOINT LeftShoulder
				{
					OFFSET 4.363600 0.000000 0.000000
					CHANNELS 6 Xposition Yposition Zposition Zrotation Xrotation Yrotation
					JOINT LeftElbow
					{
						OFFSET 0.000000 -0.000001 -10.306900
						CHANNELS 6 Xposition Yposition Zposition Zrotation Xrotation Yrotation
						JOINT LeftWrist
						{
							OFFSET 0.000000 -0.000001 -12.404900
							CHANNELS 6 Xposition Yposition Zposition Zrotation Xrotation Yrotation
							End Site
							{
								OFFSET 0.000000 0.000000 -2.173901
							}
						}
					}
				}
			}
			JOINT RightCollar
			{
				OFFSET -2.354800 -1.897200 5.063099
				CHANNELS 6 Xposition Yposition Zposition Zrotation Xrotation Yrotation
				JOINT RightShoulder
				{
					OFFSET -4.375800 0.000000 0.000000
					CHANNELS 6 Xposition Yposition Zposition Zrotation Xrotation Yrotation
					JOINT RightElbow
					{
						OFFSET 0.000000 -0.000001 -10.005001
						CHANNELS 6 Xposition Yposition Zposition Zrotation Xrotation Yrotation
						JOINT RightWrist
						{
							OFFSET 0.000000 -0.000001 -13.174900
							CHANNELS 6 Xposition Yposition Zposition Zrotation Xrotation Yrotation
							End Site
							{
								OFFSET 0.000000 0.000000 -2.173901
							}
						}
					}
				}
			}
		}
	}
	JOINT LeftHip
	{
		OFFSET 2.240600 0.386800 -2.614101
		CHANNELS 6 Xposition Yposition Zposition Zrotation Xrotation Yrotation
		JOINT LeftKnee
		{
			OFFSET 0.000000 -0.000001 -18.592899
			CHANNELS 6 Xposition Yposition Zposition Zrotation Xrotation Yrotation
			JOINT LeftAnkle
			{
				OFFSET 0.000000 -0.000001 -18.765800
				CHANNELS 6 Xposition Yposition Zposition Zrotation Xrotation Yrotation
				End Site
				{
					OFFSET 0.000000 -8.655000 0.000000
				}
			}
		}
	}
	JOINT RightHip
	{
		OFFSET -2.014900 -0.220900 -2.615898
		CHANNELS 6 Xposition Yposition Zposition Zrotation Xrotation Yrotation
		JOINT RightKnee
		{
			OFFSET 0.000000 -0.000001 -18.633900
			CHANNELS 6 Xposition Yposition Zposition Zrotation Xrotation Yrotation
			JOINT RightAnkle
			{
				OFFSET 0.000000 -0.000001 -18.285101
				CHANNELS 6 Xposition Yposition Zposition Zrotation Xrotation Yrotation
				End Site
				{
					OFFSET 0.000000 -7.524500 0.000000
				}
			}
		}
	}
}
MOTION
Frames: 7
Frame Time: 0.041667
-5.748799 24.718700 8.128403 5.205769 18.250344 3.710102 -0.204901 1.598100 7.917305 -4.714839 5.879545 -2.623094 -0.000001 0.000003 3.404103 2.482351 -17.426174 -1.381230 0.000000 -0.000001 7.928600 -0.658800 -9.765581 -2.157481 0.000000 0.000000 2.173898 -0.941038 -8.922195 0.366738 2.833802 -1.396300 4.843306 6.130260 8.986504 8.889269 4.363594 0.000005 -0.000004 -33.763913 -0.897426 -116.522508 -0.000000 -0.000000 -10.306896 617.827220 -177.594003 541.960211 0.000005 0.000007 -12.404892 -311.277839 360.416652 -334.759101 -2.354802 -1.897202 5.063106 4.938278 8.283525 -11.403987 -4.375793 0.000004 -0.000003 26.639828 -7.587866 120.034031 0.000003 -0.000003 -10.005000 -597.663846 -178.580241 -537.925755 0.000000 0.000002 -13.174886 -51.762315 -7.718504 367.677088 2.240599 0.386806 -2.614105 145.848431 -28.549289 117.316422 -0.000001 -0.000003 -18.592894 -106.455991 38.200203 136.620271 -0.000000 0.000001 -18.765797 11.004711 36.753480 -22.299883 -2.014898 -0.220896 -2.615899 -122.395610 -6.061808 -109.903447 0.000000 0.000002 -18.633883 183.793888 25.716968 -182.519826 -0.000007 -0.000004 -18.285084 -11.824943 36.040484 -214.854092
-5.744799 24.702200 8.138508 5.243260 18.413502 3.735975 -0.204901 1.598099 7.917308 -4.739463 5.882961 -2.684208 0.000001 -0.000000 3.404102 2.486754 -17.430417 -1.380647 -0.000001 0.000002 7.928602 -0.682755 -9.859534 -2.093994 0.000000 -0.000003 2.173897 -0.943229 -8.961245 0.362448 2.833801 -1.396301 4.843301 6.031398 9.057784 8.779307 4.363593 0.000005 -0.000008 -34.240254 -1.095923 -117.070344 0.000002 0.000001 -10.306892 616.990877 -177.501768 541.979390 0.000003 0.000001 -12.404896 -310.849504 360.431323 -334.920020 -2.354801 -1.897200 5.063106 4.959417 8.320161 -11.218541 -4.375789 0.000008 -0.000009 27.259681 -7.645779 120.480835 0.000000 -0.000001 -10.004996 -596.640629 -178.613818 -537.920345 0.000005 0.000000 -13.174887 -52.160444 -7.546582 367.763476 2.240599 0.386800 -2.614105 145.845289 -28.507628 117.354534 0.000001 -0.000006 -18.592894 -107.001306 38.778023 137.086391 0.000001 -0.000000 -18.765797 10.311163 36.821663 -22.467868 -2.014895 -0.220900 -2.615901 -122.463571 -6.078218 -109.970192 0.000000 0.000002 -18.633883 183.813627 25.730777 -182.576844 -0.000007 -0.000005 -18.285084 -11.767565 36.113457 -215.039272
-5.741499 24.684799 8.150604 5.288635 18.581303 3.762058 -0.204901 1.598098 7.917308 -4.771340 5.880308 -2.753141 -0.000000 -0.000000 3.404096 2.484512 -17.423217 -1.380456 0.000000 0.000000 7.928596 -0.692171 -9.965710 -2.038222 -0.000000 0.000002 2.173896 -0.953075 -9.023811 0.371653 2.833802 -1.396303 4.843302 5.962038 9.117007 8.675402 4.363592 0.000003 -0.000005 -34.819591 -1.323290 -117.651935 -0.000005 0.000000 -10.306896 615.978916 -177.467248 541.944802 0.000003 0.000005 -12.404896 -310.373085 360.427607 -334.912233 -2.354802 -1.897200 5.063100 5.064904 8.406926 -11.045722 -4.375793 0.000005 -0.000006 27.830137 -7.763176 120.984425 0.000002 0.000000 -10.004992 -595.652601 -178.642874 -537.932530 0.000000 0.000000 -13.174893 -52.449197 -7.740258 367.782983 2.240599 0.386804 -2.614100 145.836123 -28.489527 117.391090 -0.000001 0.000000 -18.592894 -107.391952 39.211993 137.416057 -0.000000 0.000001 -18.765799 9.762501 36.866551 -22.632879 -2.014899 -0.220900 -2.615896 -122.535315 -6.095234 -110.033603 -0.000000 0.000001 -18.633883 183.843899 25.748625 -182.637127 -0.000007 -0.000002 -18.285086 -11.702462 36.193709 -215.243330
-5.738400 24.668503 8.161911 5.330597 18.762461 3.776987 -0.204900 1.598098 7.917307 -4.801056 5.883399 -2.800205 -0.000000 -0.000002 3.404102 2.444393 -17.432726 -1.389149 0.000000 -0.000000 7.928601 -0.692263 -10.095585 -2.006328 -0.000000 0.000001 2.173904 -0.937583 -9.055006 0.379162 2.833803 -1.396303 4.843306 6.081912 9.048197 8.516215 4.363594 0.000004 -0.000009 -35.529056 -1.395626 -118.152082 0.000000 0.000001 -10.306895 615.282237 -177.456183 541.939830 0.000004 0.000006 -12.404895 -310.135613 360.431487 -334.897180 -2.354803 -1.897201 5.063103 5.200600 8.496935 -10.873650 -4.375789 0.000003 -0.000008 28.409193 -7.889341 121.515909 -0.000001 -0.000001 -10.004999 -594.716374 -178.657750 -537.987336 0.000003 0.000004 -13.174890 -52.849726 -7.617272 367.752685 2.240600 0.386801 -2.614101 145.836164 -28.453800 117.441947 -0.000001 -0.000001 -18.592892 -107.673213 39.538264 137.710725 0.000001 0.000001 -18.765799 9.403177 36.887328 -22.917540 -2.014893 -0.220902 -2.615901 -122.601144 -6.088666 -110.118687 0.000000 0.000002 -18.633883 183.903513 25.762487 -182.700662 -0.000007 -0.000006 -18.285086 -11.635642 36.274923 -215.450066
-5.734600 24.653200 8.171307 5.368070 18.957144 3.750224 -0.204901 1.598101 7.917311 -4.832097 5.863054 -2.806678 -0.000001 -0.000000 3.404104 2.405644 -17.443267 -1.399211 -0.000000 0.000002 7.928599 -0.686237 -10.221354 -1.973732 -0.000000 0.000003 2.173898 -0.947105 -9.093003 0.384790 2.833802 -1.396298 4.843301 6.177337 8.997255 8.318174 4.363592 0.000010 -0.000005 -36.306468 -1.589401 -118.638460 -0.000001 0.000002 -10.306894 614.481739 -177.482247 541.914258 0.000006 0.000003 -12.404896 -309.879945 360.420340 -334.873738 -2.354803 -1.897200 5.063104 5.312421 8.586182 -10.740008 -4.375791 0.000008 -0.000014 29.047521 -7.972415 122.104125 -0.000001 -0.000000 -10.004993 -593.899483 -178.671397 -538.027716 0.000001 0.000002 -13.174889 -53.160349 -7.531341 367.611573 2.240599 0.386805 -2.614104 145.825782 -28.369751 117.468749 0.000000 -0.000002 -18.592894 -107.801641 39.771116 137.890372 0.000001 0.000000 -18.765799 9.223417 36.927776 -23.275772 -2.014898 -0.220897 -2.615900 -122.665976 -6.078911 -110.245045 0.000000 0.000001 -18.633883 183.991554 25.767331 -182.766778 -0.000007 -0.000004 -18.285084 -11.569939 36.354887 -215.653237
-5.730899 24.638805 8.180199 5.401214 19.165601 3.701957 -0.204901 1.598098 7.917304 -4.863966 5.810615 -2.786615 -0.000001 0.000003 3.404099 2.374186 -17.448623 -1.408234 -0.000000 0.000002 7.928596 -0.673294 -10.325936 -1.957075 -0.000000 0.000002 2.173904 -0.996827 -9.149889 0.384763 2.833803 -1.396298 4.843300 6.219045 8.988540 8.220269 4.363590 0.000004 -0.000003 -36.965861 -1.580825 -119.220897 0.000000 0.000002 -10.306893 613.866421 -177.484337 541.895679 0.000002 0.000007 -12.404896 -309.597175 360.422252 -334.849560 -2.354802 -1.897200 5.063103 5.557888 8.718528 -10.913749 -4.375789 0.000004 -0.000006 29.608255 -7.961082 122.987596 -0.000002 0.000000 -10.004992 -593.184881 -178.674074 -538.087658 0.000006 0.000003 -13.174895 -53.341940 -7.462514 367.485078 2.240599 0.386802 -2.614103 145.820577 -28.275291 117.493747 -0.000001 -0.000002 -18.592894 -107.874287 39.889326 138.035733 0.000000 0.000001 -18.765797 9.159848 36.903382 -23.691104 -2.014894 -0.220902 -2.615899 -122.727899 -6.060923 -110.399148 0.000000 0.000002 -18.633883 184.094635 25.767853 -182.832676 -0.000007 -0.000005 -18.285084 -11.505772 36.433206 -215.851613
-5.727400 24.625805 8.186012 5.449111 19.377055 3.644088 -0.204901 1.598102 7.917307 -4.910781 5.776951 -2.738469 0.000000 0.000002 3.404101 2.321257 -17.478746 -1.422622 -0.000000 0.000003 7.928604 -0.684207 -10.455794 -1.968940 -0.000000 0.000000 2.173896 -1.011198 -9.186300 0.388405 2.833801 -1.396298 4.843311 6.334008 8.976678 8.066243 4.363591 0.000005 -0.000007 -37.765352 -1.722438 -119.776205 0.000001 0.000001 -10.306894 613.538408 -177.474324 541.932890 0.000003 0.000003 -12.404896 -309.791426 360.438426 -334.854942 -2.354800 -1.897200 5.063107 5.703835 8.872696 -10.913263 -4.375791 0.000004 -0.000008 30.300799 -8.020566 123.730776 0.000001 -0.000002 -10.004991 -592.554646 -178.677831 -538.134813 0.000001 -0.000002 -13.174898 -53.482174 -7.285269 366.883966 2.240598 0.386805 -2.614101 145.808433 -28.168819 117.532707 -0.000001 -0.000003 -18.592894 -107.863187 39.924126 138.115386 -0.000001 0.000002 -18.765800 9.215362 36.865130 -24.141676 -2.014898 -0.220902 -2.615901 -122.805176 -6.022880 -110.569889 -0.000000 0.000004 -18.633884 184.203904 25.761812 -182.898041 -0.000006 -0.000003 -18.285086 -11.447778 36.503038 -216.029075
